<mxfile host="app.diagrams.net" modified="2022-11-24T09:47:11.583Z" agent="5.0 (Macintosh; Intel Mac OS X 10_15_7) AppleWebKit/605.1.15 (KHTML, like Gecko) Version/16.1 Safari/605.1.15" etag="F353q56hbz4IY_3nF9sw" version="20.5.3" type="github">
  <diagram id="vQhc-LN_o8leNg1Mxk0Y" name="Seite-1">
    <mxGraphModel dx="2066" dy="1015" grid="1" gridSize="10" guides="1" tooltips="1" connect="1" arrows="1" fold="1" page="1" pageScale="1" pageWidth="827" pageHeight="1169" math="0" shadow="0">
      <root>
        <mxCell id="0" />
        <mxCell id="1" parent="0" />
        <mxCell id="opA1cYsUA3QZYckgHqJ2-3" value="" style="shape=partialRectangle;whiteSpace=wrap;html=1;left=0;right=0;fillColor=none;" parent="1" vertex="1">
          <mxGeometry x="177" y="30" width="35" height="10" as="geometry" />
        </mxCell>
        <mxCell id="opA1cYsUA3QZYckgHqJ2-4" value="" style="shape=partialRectangle;whiteSpace=wrap;html=1;left=0;right=0;fillColor=none;" parent="1" vertex="1">
          <mxGeometry x="130" y="30" width="36" height="10" as="geometry" />
        </mxCell>
        <mxCell id="opA1cYsUA3QZYckgHqJ2-7" value="" style="shape=partialRectangle;whiteSpace=wrap;html=1;left=0;right=0;fillColor=none;rotation=90;" parent="1" vertex="1">
          <mxGeometry x="154" y="53" width="35" height="10" as="geometry" />
        </mxCell>
        <mxCell id="opA1cYsUA3QZYckgHqJ2-11" value="" style="endArrow=none;html=1;rounded=0;exitX=0;exitY=0;exitDx=0;exitDy=0;" parent="1" source="opA1cYsUA3QZYckgHqJ2-4" edge="1">
          <mxGeometry width="50" height="50" relative="1" as="geometry">
            <mxPoint x="170" y="80" as="sourcePoint" />
            <mxPoint x="200" y="30" as="targetPoint" />
          </mxGeometry>
        </mxCell>
        <mxCell id="opA1cYsUA3QZYckgHqJ2-12" value="" style="shape=partialRectangle;whiteSpace=wrap;html=1;left=0;right=0;fillColor=none;" parent="1" vertex="1">
          <mxGeometry x="57" y="30" width="35" height="10" as="geometry" />
        </mxCell>
        <mxCell id="opA1cYsUA3QZYckgHqJ2-13" value="" style="shape=partialRectangle;whiteSpace=wrap;html=1;left=0;right=0;fillColor=none;" parent="1" vertex="1">
          <mxGeometry x="10" y="30" width="36" height="10" as="geometry" />
        </mxCell>
        <mxCell id="opA1cYsUA3QZYckgHqJ2-14" value="" style="shape=partialRectangle;whiteSpace=wrap;html=1;left=0;right=0;fillColor=none;rotation=90;" parent="1" vertex="1">
          <mxGeometry x="34" y="53" width="35" height="10" as="geometry" />
        </mxCell>
        <mxCell id="opA1cYsUA3QZYckgHqJ2-15" value="" style="endArrow=none;html=1;rounded=0;exitX=0;exitY=0;exitDx=0;exitDy=0;" parent="1" source="opA1cYsUA3QZYckgHqJ2-13" edge="1">
          <mxGeometry width="50" height="50" relative="1" as="geometry">
            <mxPoint x="50" y="80" as="sourcePoint" />
            <mxPoint x="80" y="30" as="targetPoint" />
          </mxGeometry>
        </mxCell>
        <mxCell id="opA1cYsUA3QZYckgHqJ2-17" value="" style="shape=partialRectangle;whiteSpace=wrap;html=1;left=0;right=0;fillColor=none;" parent="1" vertex="1">
          <mxGeometry x="116" y="90" width="35" height="10" as="geometry" />
        </mxCell>
        <mxCell id="opA1cYsUA3QZYckgHqJ2-18" value="" style="shape=partialRectangle;whiteSpace=wrap;html=1;left=0;right=0;fillColor=none;" parent="1" vertex="1">
          <mxGeometry x="69" y="90" width="36" height="10" as="geometry" />
        </mxCell>
        <mxCell id="opA1cYsUA3QZYckgHqJ2-19" value="" style="shape=partialRectangle;whiteSpace=wrap;html=1;left=0;right=0;fillColor=none;rotation=90;" parent="1" vertex="1">
          <mxGeometry x="93" y="113" width="35" height="10" as="geometry" />
        </mxCell>
        <mxCell id="opA1cYsUA3QZYckgHqJ2-20" value="" style="endArrow=none;html=1;rounded=0;exitX=0;exitY=0;exitDx=0;exitDy=0;" parent="1" source="opA1cYsUA3QZYckgHqJ2-18" edge="1">
          <mxGeometry width="50" height="50" relative="1" as="geometry">
            <mxPoint x="109" y="140" as="sourcePoint" />
            <mxPoint x="139" y="90" as="targetPoint" />
          </mxGeometry>
        </mxCell>
        <mxCell id="opA1cYsUA3QZYckgHqJ2-22" value="" style="endArrow=none;html=1;rounded=0;exitX=1;exitY=0;exitDx=0;exitDy=0;" parent="1" source="opA1cYsUA3QZYckgHqJ2-17" edge="1">
          <mxGeometry width="50" height="50" relative="1" as="geometry">
            <mxPoint x="117" y="125" as="sourcePoint" />
            <mxPoint x="167" y="75" as="targetPoint" />
          </mxGeometry>
        </mxCell>
        <mxCell id="opA1cYsUA3QZYckgHqJ2-23" value="" style="endArrow=none;html=1;rounded=0;exitX=1;exitY=0;exitDx=0;exitDy=0;entryX=1;entryY=0;entryDx=0;entryDy=0;" parent="1" target="opA1cYsUA3QZYckgHqJ2-7" edge="1">
          <mxGeometry width="50" height="50" relative="1" as="geometry">
            <mxPoint x="151" y="100" as="sourcePoint" />
            <mxPoint x="167" y="85" as="targetPoint" />
          </mxGeometry>
        </mxCell>
        <mxCell id="opA1cYsUA3QZYckgHqJ2-24" value="" style="endArrow=none;html=1;rounded=0;entryX=1;entryY=0;entryDx=0;entryDy=0;exitX=0;exitY=0;exitDx=0;exitDy=0;" parent="1" source="opA1cYsUA3QZYckgHqJ2-18" target="opA1cYsUA3QZYckgHqJ2-14" edge="1">
          <mxGeometry width="50" height="50" relative="1" as="geometry">
            <mxPoint x="280" y="130" as="sourcePoint" />
            <mxPoint x="330" y="80" as="targetPoint" />
          </mxGeometry>
        </mxCell>
        <mxCell id="opA1cYsUA3QZYckgHqJ2-25" value="" style="endArrow=none;html=1;rounded=0;exitX=0;exitY=1;exitDx=0;exitDy=0;entryX=1;entryY=1;entryDx=0;entryDy=0;" parent="1" source="opA1cYsUA3QZYckgHqJ2-18" target="opA1cYsUA3QZYckgHqJ2-14" edge="1">
          <mxGeometry width="50" height="50" relative="1" as="geometry">
            <mxPoint x="171" y="110" as="sourcePoint" />
            <mxPoint x="187" y="95" as="targetPoint" />
          </mxGeometry>
        </mxCell>
        <mxCell id="opA1cYsUA3QZYckgHqJ2-27" value="Actor" style="shape=umlActor;verticalLabelPosition=bottom;verticalAlign=top;html=1;outlineConnect=0;" parent="1" vertex="1">
          <mxGeometry x="105" y="140" width="10" height="20" as="geometry" />
        </mxCell>
        <mxCell id="opA1cYsUA3QZYckgHqJ2-37" value="&lt;span style=&quot;font-size: 12px;&quot;&gt;s&lt;sub&gt;2&lt;/sub&gt;&lt;/span&gt;" style="text;strokeColor=none;fillColor=none;html=1;fontSize=24;fontStyle=1;verticalAlign=middle;align=center;" parent="1" vertex="1">
          <mxGeometry x="46" y="10" width="10" height="13" as="geometry" />
        </mxCell>
        <mxCell id="opA1cYsUA3QZYckgHqJ2-38" value="&lt;span style=&quot;font-size: 12px;&quot;&gt;s&lt;sub&gt;1&lt;br&gt;&lt;/sub&gt;&lt;/span&gt;" style="text;strokeColor=none;fillColor=none;html=1;fontSize=24;fontStyle=1;verticalAlign=middle;align=center;" parent="1" vertex="1">
          <mxGeometry x="105.5" y="70" width="10" height="13" as="geometry" />
        </mxCell>
        <mxCell id="opA1cYsUA3QZYckgHqJ2-39" value="&lt;span style=&quot;font-size: 12px;&quot;&gt;s&lt;sub&gt;3&lt;br&gt;&lt;/sub&gt;&lt;/span&gt;" style="text;strokeColor=none;fillColor=none;html=1;fontSize=24;fontStyle=1;verticalAlign=middle;align=center;" parent="1" vertex="1">
          <mxGeometry x="166.5" y="10" width="10" height="13" as="geometry" />
        </mxCell>
        <mxCell id="opA1cYsUA3QZYckgHqJ2-43" value="" style="endArrow=none;html=1;rounded=0;fontSize=12;entryX=1;entryY=0;entryDx=0;entryDy=0;exitX=1;exitY=1;exitDx=0;exitDy=0;" parent="1" source="opA1cYsUA3QZYckgHqJ2-3" target="opA1cYsUA3QZYckgHqJ2-3" edge="1">
          <mxGeometry width="50" height="50" relative="1" as="geometry">
            <mxPoint x="190" y="100" as="sourcePoint" />
            <mxPoint x="240" y="50" as="targetPoint" />
          </mxGeometry>
        </mxCell>
        <mxCell id="opA1cYsUA3QZYckgHqJ2-44" value="" style="endArrow=none;html=1;rounded=0;fontSize=12;entryX=1;entryY=0;entryDx=0;entryDy=0;exitX=1;exitY=1;exitDx=0;exitDy=0;" parent="1" edge="1">
          <mxGeometry width="50" height="50" relative="1" as="geometry">
            <mxPoint x="130" y="40" as="sourcePoint" />
            <mxPoint x="130" y="30" as="targetPoint" />
          </mxGeometry>
        </mxCell>
        <mxCell id="opA1cYsUA3QZYckgHqJ2-45" value="" style="endArrow=none;html=1;rounded=0;fontSize=12;entryX=1;entryY=0;entryDx=0;entryDy=0;exitX=1;exitY=1;exitDx=0;exitDy=0;" parent="1" edge="1">
          <mxGeometry width="50" height="50" relative="1" as="geometry">
            <mxPoint x="92.77000000000001" y="40" as="sourcePoint" />
            <mxPoint x="92.77000000000001" y="30" as="targetPoint" />
          </mxGeometry>
        </mxCell>
        <mxCell id="opA1cYsUA3QZYckgHqJ2-46" value="" style="endArrow=none;html=1;rounded=0;fontSize=12;entryX=1;entryY=0;entryDx=0;entryDy=0;exitX=1;exitY=1;exitDx=0;exitDy=0;" parent="1" edge="1">
          <mxGeometry width="50" height="50" relative="1" as="geometry">
            <mxPoint x="10" y="40" as="sourcePoint" />
            <mxPoint x="10" y="30" as="targetPoint" />
          </mxGeometry>
        </mxCell>
        <mxCell id="opA1cYsUA3QZYckgHqJ2-47" value="" style="shape=waypoint;sketch=0;fillStyle=solid;size=6;pointerEvents=1;points=[];fillColor=none;resizable=0;rotatable=0;perimeter=centerPerimeter;snapToPoint=1;fontSize=12;" parent="1" vertex="1">
          <mxGeometry x="65" y="15" width="40" height="40" as="geometry" />
        </mxCell>
        <mxCell id="opA1cYsUA3QZYckgHqJ2-48" value="" style="shape=waypoint;sketch=0;fillStyle=solid;size=6;pointerEvents=1;points=[];fillColor=none;resizable=0;rotatable=0;perimeter=centerPerimeter;snapToPoint=1;fontSize=12;" parent="1" vertex="1">
          <mxGeometry x="116" y="15" width="40" height="40" as="geometry" />
        </mxCell>
        <mxCell id="opA1cYsUA3QZYckgHqJ2-49" value="" style="shape=waypoint;sketch=0;fillStyle=solid;size=6;pointerEvents=1;points=[];fillColor=none;resizable=0;rotatable=0;perimeter=centerPerimeter;snapToPoint=1;fontSize=12;" parent="1" vertex="1">
          <mxGeometry x="126" y="15" width="40" height="40" as="geometry" />
        </mxCell>
        <mxCell id="opA1cYsUA3QZYckgHqJ2-50" value="" style="shape=waypoint;sketch=0;fillStyle=solid;size=6;pointerEvents=1;points=[];fillColor=none;resizable=0;rotatable=0;perimeter=centerPerimeter;snapToPoint=1;fontSize=12;" parent="1" vertex="1">
          <mxGeometry x="188" y="15" width="40" height="40" as="geometry" />
        </mxCell>
        <mxCell id="opA1cYsUA3QZYckgHqJ2-51" value="" style="shape=waypoint;sketch=0;fillStyle=solid;size=6;pointerEvents=1;points=[];fillColor=none;resizable=0;rotatable=0;perimeter=centerPerimeter;snapToPoint=1;fontSize=12;" parent="1" vertex="1">
          <mxGeometry x="136.5" y="15" width="40" height="40" as="geometry" />
        </mxCell>
        <mxCell id="opA1cYsUA3QZYckgHqJ2-52" value="" style="shape=waypoint;sketch=0;fillStyle=solid;size=6;pointerEvents=1;points=[];fillColor=none;resizable=0;rotatable=0;perimeter=centerPerimeter;snapToPoint=1;fontSize=12;" parent="1" vertex="1">
          <mxGeometry x="177" y="15" width="40" height="40" as="geometry" />
        </mxCell>
      </root>
    </mxGraphModel>
  </diagram>
</mxfile>
